# xmcd
#
# Track frame offsets:
#	150
#	11080
#	20361
#	30770
#	39994
#	52099
#	63293
#	74605
#	90046
#	103895
#	115320
#	129921
#	142162
#	155036
#	167934
#	182219
#	197254
#	206311
#	219396
#	231214
#	246391
#	262603
#	275185
#	286905
#
# Disc length: 3985 seconds
#
# Revision: 1
# Processed by: cddbd v1.5.2PL0 Copyright (c) Steve Scherf et al.
# Submitted via: audiograbber 1.83.01
#
DISCID=560f8f18
DTITLE=Stompin Tom Connors - A Proud Canadian
DYEAR=1900
DGENRE=
TTITLE0=Bud The Spud
TTITLE1=The Hockey Song
TTITLE2=Snowmobile Song
TTITLE3=Roll On Saskatchewan
TTITLE4=Manitoba
TTITLE5=Sudbury Saturday Night
TTITLE6=To It And At It
TTITLE7=Tillsonburg
TTITLE8=Roving All Over The Land
TTITLE9=New Brunswick And Mary
TTITLE10=Big Joe Mufferaw
TTITLE11=Gumboot Cloggeroo (Gumboot Cloggin')
TTITLE12=The Old Atlantic Shore
TTITLE13=Blue Nose
TTITLE14=Fleur De Lis
TTITLE15=Margo's Cargo
TTITLE16=The Ketchup Song
TTITLE17=Tribute To Wilf Carter
TTITLE18=The Bridge Came Tumblin' Down
TTITLE19=Marten Hartwell Story
TTITLE20=I Am The Wind
TTITLE21=The Singer (Voice Of The People)
TTITLE22=Canada Day, Up Canada Way
TTITLE23=The Olympic Song
EXTD=
EXTT0=
EXTT1=
EXTT2=
EXTT3=
EXTT4=
EXTT5=
EXTT6=
EXTT7=
EXTT8=
EXTT9=
EXTT10=
EXTT11=
EXTT12=
EXTT13=
EXTT14=
EXTT15=
EXTT16=
EXTT17=
EXTT18=
EXTT19=
EXTT20=
EXTT21=
EXTT22=
EXTT23=
PLAYORDER=
